M48
; DRILL file {KiCad 9.0.6} date 2025-12-15T12:24:15+0530
; FORMAT={-:-/ absolute / metric / decimal}
; #@! TF.CreationDate,2025-12-15T12:24:15+05:30
; #@! TF.GenerationSoftware,Kicad,Pcbnew,9.0.6
; #@! TF.FileFunction,NonPlated,1,2,NPTH
FMAT,2
METRIC
; #@! TA.AperFunction,NonPlated,NPTH,ComponentDrill
T1C1.750
; #@! TA.AperFunction,NonPlated,NPTH,ComponentDrill
T2C4.000
%
G90
G05
T1
X90.17Y-57.15
X90.17Y-76.2
X90.17Y-95.25
X100.33Y-57.15
X100.33Y-76.2
X100.33Y-95.25
X109.22Y-57.15
X109.22Y-76.2
X109.22Y-95.25
X119.38Y-57.15
X119.38Y-76.2
X119.38Y-95.25
X128.27Y-57.15
X128.27Y-76.2
X128.27Y-95.25
X138.43Y-57.15
X138.43Y-76.2
X138.43Y-95.25
T2
X95.25Y-57.15
X95.25Y-76.2
X95.25Y-95.25
X114.3Y-57.15
X114.3Y-76.2
X114.3Y-95.25
X133.35Y-57.15
X133.35Y-76.2
X133.35Y-95.25
M30
