M48
; DRILL file {KiCad 9.0.6} date 2025-12-15T12:24:15+0530
; FORMAT={-:-/ absolute / metric / decimal}
; #@! TF.CreationDate,2025-12-15T12:24:15+05:30
; #@! TF.GenerationSoftware,Kicad,Pcbnew,9.0.6
; #@! TF.FileFunction,Plated,1,2,PTH
FMAT,2
METRIC
; #@! TA.AperFunction,Plated,PTH,ViaDrill
T1C0.300
; #@! TA.AperFunction,Plated,PTH,ComponentDrill
T2C0.800
; #@! TA.AperFunction,Plated,PTH,ComponentDrill
T3C1.000
; #@! TA.AperFunction,Plated,PTH,ComponentDrill
T4C1.500
%
G90
G05
T1
X81.88Y-34.798
X82.042Y-41.91
X103.632Y-33.274
X105.65Y-33.557
X110.49Y-102.616
X110.49Y-107.442
X120.65Y-104.14
X120.65Y-111.506
X122.428Y-103.886
X124.968Y-48.768
X125.222Y-103.886
X125.476Y-96.012
X125.476Y-99.822
X127.508Y-98.552
X134.874Y-60.96
X136.144Y-54.864
X146.774Y-57.404
X146.774Y-62.23
X146.99Y-108.966
X146.99Y-104.16
X147.574Y-57.404
X147.574Y-62.23
X147.79Y-104.14
X147.79Y-108.966
X148.59Y-104.14
X148.59Y-108.966
T2
X104.775Y-52.07
X104.775Y-59.69
X104.775Y-71.12
X104.775Y-78.74
X104.775Y-90.17
X104.775Y-97.79
X123.825Y-52.07
X123.825Y-59.69
X123.825Y-71.12
X123.825Y-78.74
X123.825Y-90.17
X123.825Y-97.79
X142.875Y-52.07
X142.875Y-59.69
X142.875Y-71.12
X142.875Y-78.74
X142.875Y-90.17
X142.875Y-97.79
T3
X87.363Y-38.14
X87.363Y-40.64
X87.363Y-43.14
X101.863Y-38.14
X101.863Y-43.14
X106.172Y-36.068
X106.172Y-38.608
X106.172Y-41.148
X106.172Y-43.688
X127.0Y-110.3
X127.0Y-125.54
X129.54Y-110.3
X129.54Y-125.54
X132.08Y-110.3
X132.08Y-125.54
X134.62Y-110.3
X134.62Y-125.54
X137.16Y-110.3
X137.16Y-125.54
X139.7Y-110.3
X139.7Y-125.54
X142.24Y-110.3
X142.24Y-125.54
T4
X91.44Y-54.61
X91.44Y-73.66
X91.44Y-92.71
X97.79Y-52.07
X97.79Y-71.12
X97.79Y-90.17
X110.49Y-54.61
X110.49Y-73.66
X110.49Y-92.71
X116.84Y-52.07
X116.84Y-71.12
X116.84Y-90.17
X129.54Y-54.61
X129.54Y-73.66
X129.54Y-92.71
X135.89Y-52.07
X135.89Y-71.12
X135.89Y-90.17
T4
G00X94.213Y-35.04
M15
G01X95.513Y-35.04
M16
G05
G00X94.213Y-46.24
M15
G01X95.513Y-46.24
M16
G05
M30
